<?xml version="1.0" encoding="iso-8859-1"?>
<!-- Generator: Adobe Illustrator 19.0.0, SVG Export Plug-In . SVG Version: 6.00 Build 0)  -->
<svg version="1.1" id="Capa_1" xmlns="http://www.w3.org/2000/svg" xmlns:xlink="http://www.w3.org/1999/xlink" x="0px" y="0px"
	 viewBox="0 0 512 512" style="enable-background:new 0 0 512 512;" xml:space="preserve">
<g>
	<g>
		<path d="M100.174,267.13H11.13c-6.144,0-11.13,4.986-11.13,11.13v178.087c0,6.144,4.986,11.13,11.13,11.13h89.043
			c6.144,0,11.13-4.986,11.13-11.13V278.261C111.304,272.117,106.318,267.13,100.174,267.13z M89.043,445.217H22.261V289.391h66.783
			V445.217z"/>
	</g>
</g>
<g>
	<g>
		<path d="M233.739,89.043h-89.043c-6.144,0-11.13,4.986-11.13,11.13v356.174c0,6.144,4.986,11.13,11.13,11.13h89.043
			c6.144,0,11.13-4.986,11.13-11.13V100.174C244.87,94.03,239.883,89.043,233.739,89.043z M222.609,445.217h-66.783V111.304h66.783
			V445.217z"/>
	</g>
</g>
<g>
	<g>
		<path d="M367.304,178.087h-89.044c-6.144,0-11.13,4.986-11.13,11.13v267.13c0,6.144,4.986,11.13,11.13,11.13h89.044
			c6.144,0,11.13-4.986,11.13-11.13v-267.13C378.435,183.073,373.448,178.087,367.304,178.087z M356.174,445.217h-66.783v-244.87
			h66.783V445.217z"/>
	</g>
</g>
<g>
	<g>
		<path d="M500.87,44.522h-89.043c-6.144,0-11.13,4.986-11.13,11.13v400.696c0,6.144,4.986,11.13,11.13,11.13h89.043
			c6.144,0,11.13-4.986,11.13-11.13V55.652C512,49.508,507.014,44.522,500.87,44.522z M489.739,445.217h-66.783V66.783h66.783
			V445.217z"/>
	</g>
</g>
<g>
</g>
<g>
</g>
<g>
</g>
<g>
</g>
<g>
</g>
<g>
</g>
<g>
</g>
<g>
</g>
<g>
</g>
<g>
</g>
<g>
</g>
<g>
</g>
<g>
</g>
<g>
</g>
<g>
</g>
</svg>
