<?xml version="1.0" encoding="iso-8859-1"?>
<!-- Generator: Adobe Illustrator 19.0.0, SVG Export Plug-In . SVG Version: 6.00 Build 0)  -->
<svg version="1.1" id="Capa_1" xmlns="http://www.w3.org/2000/svg" xmlns:xlink="http://www.w3.org/1999/xlink" x="0px" y="0px"
	 viewBox="0 0 512 512" style="enable-background:new 0 0 512 512;" xml:space="preserve">
<g>
	<g>
		<g>
			<rect x="176" y="192" width="64" height="64"/>
			<rect x="272" y="192" width="64" height="64"/>
			<rect x="368" y="192" width="64" height="64"/>
			<rect x="80" y="288" width="64" height="64"/>
			<rect x="176" y="288" width="64" height="64"/>
			<rect x="272" y="288" width="64" height="64"/>
			<rect x="368" y="288" width="64" height="64"/>
			<rect x="80" y="384" width="64" height="64"/>
			<rect x="176" y="384" width="64" height="64"/>
			<rect x="272" y="384" width="64" height="64"/>
			<path d="M432,64V16c0-8.801-7.168-16-16-16h-64c-8.832,0-16,7.199-16,16v48H176V16c0-8.801-7.168-16-16-16H96
				c-8.832,0-16,7.199-16,16v48H16v448h480V64H432z M368,32h32v64h-32V32z M112,32h32v64h-32V32z M464,480H48V160h416V480z"/>
		</g>
	</g>
</g>
<g>
</g>
<g>
</g>
<g>
</g>
<g>
</g>
<g>
</g>
<g>
</g>
<g>
</g>
<g>
</g>
<g>
</g>
<g>
</g>
<g>
</g>
<g>
</g>
<g>
</g>
<g>
</g>
<g>
</g>
</svg>
