<?xml version="1.0" encoding="iso-8859-1"?>
<!-- Generator: Adobe Illustrator 19.0.0, SVG Export Plug-In . SVG Version: 6.00 Build 0)  -->
<svg version="1.1" id="Capa_1" xmlns="http://www.w3.org/2000/svg" xmlns:xlink="http://www.w3.org/1999/xlink" x="0px" y="0px"
	 viewBox="0 0 512 512" style="enable-background:new 0 0 512 512;" xml:space="preserve">
<g>
	<g>
		<g>
			<path d="M407.273,325.818H384c-6.427,0-11.636,5.21-11.636,11.636s5.21,11.636,11.636,11.636h23.273
				c6.427,0,11.636-5.21,11.636-11.636S413.699,325.818,407.273,325.818z"/>
			<path d="M488.727,116.364H23.273C10.42,116.364,0,126.783,0,139.636v232.727c0,12.853,10.42,23.273,23.273,23.273h465.455
				c12.853,0,23.273-10.42,23.273-23.273V139.636C512,126.783,501.58,116.364,488.727,116.364z M34.909,139.636
				c6.427,0,11.636,5.21,11.636,11.636s-5.21,11.636-11.636,11.636c-6.427,0-11.636-5.21-11.636-11.636
				S28.482,139.636,34.909,139.636z M34.909,372.364c-6.427,0-11.636-5.21-11.636-11.636s5.21-11.636,11.636-11.636
				c6.427,0,11.636,5.21,11.636,11.636S41.336,372.364,34.909,372.364z M477.091,372.364c-6.427,0-11.636-5.21-11.636-11.636
				s5.21-11.636,11.636-11.636s11.636,5.21,11.636,11.636S483.518,372.364,477.091,372.364z M488.727,327.913
				c-18.206-6.343-38.108,3.274-44.451,21.48c-2.591,7.438-2.591,15.533,0,22.971H67.724c6.343-18.206-3.274-38.108-21.48-44.451
				c-7.438-2.591-15.533-2.591-22.971,0V184.087c3.732,1.355,7.667,2.063,11.636,2.095c19.28,0,34.909-15.629,34.909-34.909
				c-0.031-3.97-0.74-7.905-2.095-11.636h376.553c-1.355,3.732-2.063,7.667-2.095,11.636c0,19.28,15.629,34.909,34.909,34.909
				c3.97-0.031,7.905-0.74,11.636-2.095V327.913z M477.091,162.909c-6.427,0-11.636-5.21-11.636-11.636s5.21-11.636,11.636-11.636
				s11.636,5.21,11.636,11.636S483.518,162.909,477.091,162.909z"/>
			<path d="M256,162.909c-51.413,0-93.091,41.678-93.091,93.091c0,51.413,41.678,93.091,93.091,93.091
				c51.413,0,93.091-41.678,93.091-93.091C349.091,204.587,307.413,162.909,256,162.909z M296.495,279.505
				c0.107,5.266-0.883,10.498-2.909,15.36c-1.78,4.195-4.485,7.935-7.913,10.938c-3.414,2.941-7.366,5.194-11.636,6.633
				c-4.221,1.542-8.658,2.406-13.149,2.56v10.822h-9.542v-10.822c-4.815-0.045-9.584-0.952-14.08-2.676
				c-4.317-1.613-8.272-4.065-11.636-7.215c-3.441-3.243-6.106-7.22-7.796-11.636c-1.906-5.01-2.776-10.354-2.56-15.709h17.455
				c-0.422,5.829,1.181,11.624,4.538,16.407c3.356,4.307,8.634,6.662,14.08,6.284V262.4c-3.957-1.169-7.842-2.568-11.636-4.189
				c-4.163-1.52-8.083-3.636-11.636-6.284c-3.435-2.616-6.255-5.952-8.262-9.775c-2.224-4.518-3.302-9.513-3.142-14.545
				c-0.096-4.627,0.901-9.212,2.909-13.382c1.848-3.759,4.512-7.059,7.796-9.658c6.722-5.055,14.864-7.864,23.273-8.029v-10.356
				h9.425v10.473c3.954-0.011,7.883,0.618,11.636,1.862c3.952,1.159,7.631,3.098,10.822,5.702c3.138,2.627,5.644,5.929,7.331,9.658
				c1.917,4.279,2.87,8.927,2.793,13.615h-16.756c0.094-4.476-1.389-8.842-4.189-12.335c-2.733-3.123-6.81-4.728-10.938-4.305
				v33.513c4.224,1.259,8.38,2.734,12.451,4.422c4.171,1.602,8.091,3.797,11.636,6.516
				C292.532,260.923,296.897,270.002,296.495,279.505z"/>
			<path d="M239.593,214.458c-3.333,3.046-5.017,7.496-4.538,11.985c-0.082,2.268,0.44,4.517,1.513,6.516
				c1.021,1.749,2.363,3.288,3.956,4.538c1.695,1.29,3.579,2.31,5.585,3.025c1.657,0.781,3.368,1.442,5.12,1.978v-31.651
				C247.038,210.573,242.892,211.859,239.593,214.458z"/>
			<path d="M128,162.909h-23.273c-6.427,0-11.636,5.21-11.636,11.636s5.21,11.636,11.636,11.636H128
				c6.427,0,11.636-5.21,11.636-11.636S134.427,162.909,128,162.909z"/>
			<path d="M276.945,274.385c-1.065-1.954-2.532-3.659-4.305-5.004c-1.873-1.431-3.953-2.568-6.167-3.375
				c-1.855-0.851-3.759-1.589-5.702-2.211v36.887c4.598-0.204,8.99-1.969,12.451-5.004c3.843-3.53,5.822-8.65,5.353-13.847
				C278.666,279.253,278.106,276.692,276.945,274.385z"/>
		</g>
	</g>
</g>
<g>
</g>
<g>
</g>
<g>
</g>
<g>
</g>
<g>
</g>
<g>
</g>
<g>
</g>
<g>
</g>
<g>
</g>
<g>
</g>
<g>
</g>
<g>
</g>
<g>
</g>
<g>
</g>
<g>
</g>
</svg>
