<?xml version="1.0" encoding="iso-8859-1"?>
<!-- Generator: Adobe Illustrator 19.0.0, SVG Export Plug-In . SVG Version: 6.00 Build 0)  -->
<svg version="1.1" id="Capa_1" xmlns="http://www.w3.org/2000/svg" xmlns:xlink="http://www.w3.org/1999/xlink" x="0px" y="0px"
	 viewBox="0 0 477.427 477.427" style="enable-background:new 0 0 477.427 477.427;" xml:space="preserve">
<g>
	<g>
		<path fill="#fff" d="M469.5,273.813l-0.2-0.1c-0.2-0.3-0.4-0.6-0.7-0.9c-6.2-7.7-15.3-12.5-25.2-13.5c-9.7-1-19.4,1.9-27,8
			c-19.8,16.1-49.9,40.4-67.9,54.9c-13.3,10.8-29.7,16.9-46.7,17.5l-51.1,1.7c-2.1,0.1-4-1-5-2.7l-5.7-9.7c-0.9-1.6-1.1-3.5-0.3-5.2
			c0.7-1.7,2.3-2.9,4.1-3.2l52.8-10c18.7-3.4,31.6-21,29.5-40.1c-2.1-18.3-17.6-32.2-36-32.1c-0.5,0-1.1,0-1.8,0l-70.6-2.9
			c-28.3-1-52.4,4.4-80.6,18l-37,18c-5.1-10.8-16-17.8-27.9-17.7H31.3c-17,0-31.3,13.7-31.3,30.7v152.1c0,17,14.3,31.1,31.3,31.1
			h40.9c17,0,30.8-14.1,30.8-31.1v-10.3l39.3-7.2c12.7-1.9,20.7-2.6,34.2-2.1l107.4,5c2.2,0.1,4.4,0.1,6.6,0.1
			c36.4,0,71.6-12.7,99.6-36l74.4-61.7l0.2-0.1C479.6,311.513,481.7,289.213,469.5,273.813z M82.8,436.813c0,6-4.9,10.9-10.9,10.9
			H30.6c-6,0-10.9-4.9-10.9-10.9v-152.2c0-6,4.9-10.9,10.9-10.9h41.3c6,0,10.9,4.9,10.9,10.9V436.813z M451.5,309.213l-74.3,61.6
			c-25.9,21.5-58.9,32.7-92.6,31.2l-107.4-5c-15.1-0.6-24.3,0.2-38.1,2.3c-0.1,0-0.3,0-0.4,0.1l-35.9,6.6v-113.8l42.8-20.7
			c25.1-12.1,46.4-16.9,71.1-16.1l71.1,2.9c0.4,0,0.9,0,1.3,0c0.1,0,0.5,0,0.8,0c9.1,0.1,16.4,7.5,16.3,16.6
			c-0.1,7.8-5.7,14.5-13.4,16l-52.8,10c-13.9,2.6-23.1,16-20.5,29.9c0.5,2.9,1.6,5.7,3.1,8.3l5.7,9.8c4.8,8.1,13.6,12.9,23,12.5
			l51.1-1.7c21.4-0.7,42-8.4,58.6-21.8c18-14.5,48.2-38.9,68-55c3.5-2.8,7.9-4.1,12.3-3.6c4.4,0.4,8.4,2.5,11.3,5.8
			c0.2,0.3,0.4,0.6,0.7,0.9C459.3,293.013,458.4,303.313,451.5,309.213z"/>
	</g>
</g>
<g>
	<g>
		<path fill="#fff" d="M429.5,168.513l-54.4,35.2h-69.3v-24h72.3c2.1-0.1,4.2-0.8,5.9-2.1l56.8-41.1c4.5-3.2,5.5-9.4,2.3-13.9s-9.4-5.5-13.9-2.3
			c-0.1,0-0.1,0.1-0.2,0.1l-54.2,39.3h-69v-26h72.3c2.2,0.1,4.4-0.6,6.2-2l56.8-44.8c4.4-3.4,5.1-9.8,1.7-14.1
			c-3.4-4.3-9.7-5.1-14.1-1.7l-54.1,42.6h-68.8v-25h72.3c2.5,0.1,4.9-0.8,6.8-2.4l56.8-52.5c4-3.7,4.3-9.9,0.6-13.9
			c-1.9-2.1-4.6-3.3-7.4-3.2h-68.4l-0.1-0.4c-1.5-3.9-5.2-6.5-9.3-6.6h-113c-2.6,0.1-5,1.1-6.8,2.9l-4.2,4.1h-71
			c-2.5,0-4.9,0.9-6.8,2.6l-56.8,52.6c-3,2.7-4,7-2.5,10.7c1.5,3.8,5.2,6.2,9.3,6.1h67.5v25h-67.5c-5.5,0-10,4.5-10,10
			c0,5.5,4.5,10,10,10h67.5v26h-67.5c-5.5,0-10,4.5-10,10s4.5,10,10,10h67.5v24h-67.5c-5.5,0-10,4.5-10,10s4.5,10,10,10h272.8
			c1.9,0.1,3.8-0.4,5.5-1.4l56.8-37c4.6-3,5.9-9.1,2.9-13.7C440.3,166.913,434.1,165.513,429.5,168.513z M409.4,36.713l-35.2,32H319
			l35-32H409.4z M130.8,68.713l35.3-32h45.6l-35,32H130.8z M285.8,76.913v126.8h-93v-122.5l55.3-51.5h83.6l-42.6,39.7
			C287,71.313,285.8,74.013,285.8,76.913z"/>
	</g>
</g>
<g>
</g>
<g>
</g>
<g>
</g>
<g>
</g>
<g>
</g>
<g>
</g>
<g>
</g>
<g>
</g>
<g>
</g>
<g>
</g>
<g>
</g>
<g>
</g>
<g>
</g>
<g>
</g>
<g>
</g>
</svg>
