<?xml version="1.0" encoding="iso-8859-1"?>
<!-- Generator: Adobe Illustrator 19.0.0, SVG Export Plug-In . SVG Version: 6.00 Build 0)  -->
<svg version="1.1" id="Capa_1" xmlns="http://www.w3.org/2000/svg" xmlns:xlink="http://www.w3.org/1999/xlink" x="0px" y="0px"
	 viewBox="0 0 512 512" style="enable-background:new 0 0 512 512;" xml:space="preserve">
<g>
	<g>
		<path d="M92.16,266.24c-16.937,0-30.72,13.783-30.72,30.72v122.88c0,16.937,13.783,30.72,30.72,30.72
			c16.937,0,30.72-13.783,30.72-30.72V296.96C122.88,280.023,109.097,266.24,92.16,266.24z M102.4,419.84
			c0,5.632-4.588,10.24-10.24,10.24c-5.652,0-10.24-4.608-10.24-10.24V296.96c0-5.632,4.588-10.24,10.24-10.24
			c5.653,0,10.24,4.608,10.24,10.24V419.84z"/>
	</g>
</g>
<g>
	<g>
		<path d="M509.01,335.483c-10.465-40.776-47.104-69.243-89.17-69.243c-5.652,0-10.24,4.588-10.24,10.24s4.588,10.24,10.24,10.24
			c5.632,0,10.24,4.608,10.24,10.24v122.88c0,5.632-4.608,10.24-10.24,10.24c-5.652,0-10.24,4.588-10.24,10.24
			s4.588,10.24,10.24,10.24c42.127,0,78.787-28.529,89.129-69.12c2.007-7.188,3.031-14.93,3.031-23.04
			C512,350.331,510.976,342.63,509.01,335.483z M489.185,376.156c-5.427,21.238-19.968,38.195-38.81,47.083
			c0.123-1.126,0.184-2.232,0.184-3.4V296.96c0-1.167-0.061-2.273-0.184-3.4c18.842,8.909,33.382,25.846,38.81,47.084
			c0.021,0.082,0.041,0.164,0.061,0.246c1.536,5.468,2.273,11.182,2.273,17.51C491.52,364.728,490.783,370.442,489.185,376.156z"/>
	</g>
</g>
<g>
	<g>
		<path d="M256,61.44c-95.99,0-174.08,78.09-174.08,174.08v40.96c0,5.652,4.588,10.24,10.24,10.24c5.653,0,10.24-4.588,10.24-10.24
			v-40.96c0-84.705,68.895-153.6,153.6-153.6s153.6,68.895,153.6,153.6v40.96c0,5.652,4.588,10.24,10.24,10.24
			s10.24-4.588,10.24-10.24v-40.96C430.08,139.53,351.99,61.44,256,61.44z"/>
	</g>
</g>
<g>
	<g>
		<path d="M92.16,430.08c-5.652,0-10.24-4.608-10.24-10.24V296.96c0-5.632,4.588-10.24,10.24-10.24c5.653,0,10.24-4.588,10.24-10.24
			s-4.588-10.24-10.24-10.24c-42.127,0-78.807,28.529-89.129,69.12C1.024,342.548,0,350.29,0,358.4c0,8.11,1.024,15.852,2.99,22.794
			c10.363,40.837,47.043,69.366,89.17,69.366c5.653,0,10.24-4.588,10.24-10.24S97.813,430.08,92.16,430.08z M61.624,423.24
			c-18.862-8.909-33.423-25.928-38.871-47.329c-1.516-5.468-2.273-11.182-2.273-17.51c0-6.328,0.758-12.042,2.335-17.756
			c5.407-21.238,19.968-38.195,38.81-47.104c-0.123,1.126-0.184,2.253-0.184,3.42v122.88
			C61.44,421.007,61.501,422.113,61.624,423.24z"/>
	</g>
</g>
<g>
	<g>
		<path d="M419.84,266.24c-16.937,0-30.72,13.783-30.72,30.72v122.88c0,16.937,13.783,30.72,30.72,30.72s30.72-13.783,30.72-30.72
			V296.96C450.56,280.023,436.777,266.24,419.84,266.24z M430.08,419.84c0,5.632-4.608,10.24-10.24,10.24
			c-5.632,0-10.24-4.608-10.24-10.24V296.96c0-5.632,4.608-10.24,10.24-10.24c5.632,0,10.24,4.608,10.24,10.24V419.84z"/>
	</g>
</g>
<g>
	<g>
		<path d="M345.149,330.691l-20.48-20.48c-2.15-2.191-5.407-3.113-8.233-2.97c-3.052,0.328-5.816,1.966-7.516,4.526l-34.038,51.036
			l-32.113-32.113c-2.171-2.171-5.12-3.072-8.253-2.97c-3.052,0.328-5.816,1.966-7.516,4.526l-34.038,51.036l-11.653-11.633
			c-3.994-3.994-10.486-3.994-14.479,0c-3.994,3.994-3.994,10.486,0,14.479l20.48,20.48c1.946,1.925,4.547,2.99,7.25,2.99
			c0.328,0,0.676-0.02,1.003-0.02c3.052-0.328,5.816-1.966,7.516-4.526l34.038-51.036l32.133,32.113
			c2.15,2.191,5.386,3.154,8.233,2.97c3.052-0.328,5.816-1.966,7.516-4.526l34.038-51.036l11.633,11.633
			c3.994,3.994,10.486,3.994,14.479,0S349.143,334.684,345.149,330.691z"/>
	</g>
</g>
<g>
</g>
<g>
</g>
<g>
</g>
<g>
</g>
<g>
</g>
<g>
</g>
<g>
</g>
<g>
</g>
<g>
</g>
<g>
</g>
<g>
</g>
<g>
</g>
<g>
</g>
<g>
</g>
<g>
</g>
</svg>
