<?xml version="1.0" encoding="iso-8859-1"?>
<!-- Generator: Adobe Illustrator 19.0.0, SVG Export Plug-In . SVG Version: 6.00 Build 0)  -->
<svg version="1.1" id="Capa_1" xmlns="http://www.w3.org/2000/svg" xmlns:xlink="http://www.w3.org/1999/xlink" x="0px" y="0px"
	 viewBox="0 0 511.746 511.746" style="enable-background:new 0 0 511.746 511.746;" xml:space="preserve">
<g>
	<g>
		<g>
			<path d="M508.605,399.041L347.864,238.067l10.817-10.817c18.116-18.16,18.116-47.556,0-65.716L210.734,13.587
				c-18.16-18.116-47.556-18.116-65.716,0L13.587,145.018c-18.116,18.16-18.116,47.556,0,65.716l147.947,147.947
				c18.16,18.116,47.556,18.116,65.716,0l11.631-11.631l67.693,68.042c1.956,2.073,4.605,3.356,7.444,3.606h34.893v34.893
				c0,6.424,5.207,11.631,11.631,11.631h34.893v34.893c0,6.424,5.207,11.631,11.631,11.631h93.049
				c6.424,0,11.631-5.207,11.631-11.631v-93.049C511.765,404.088,510.641,401.215,508.605,399.041z M488.484,488.484h-69.786
				v-34.893c0-6.424-5.207-11.631-11.631-11.631h-34.893v-34.893c0-6.424-5.207-11.631-11.631-11.631h-41.407l-72.578-72.694
				c-2.195-2.177-5.167-3.391-8.258-3.373c-3.318,0.067-6.45,1.548-8.607,4.071l-18.842,18.842
				c-9.079,9.089-23.808,9.098-32.898,0.018c-0.006-0.006-0.012-0.012-0.018-0.018L29.987,194.334
				c-9.089-9.079-9.098-23.808-0.018-32.898c0.006-0.006,0.012-0.012,0.018-0.018L161.418,29.987
				c9.079-9.089,23.808-9.098,32.898-0.018c0.006,0.006,0.012,0.012,0.018,0.018l147.947,147.947
				c9.089,9.079,9.098,23.808,0.018,32.898c-0.006,0.006-0.012,0.012-0.018,0.018l-18.493,18.493
				c-4.81,4.258-5.257,11.609-0.998,16.418c0.135,0.153,0.274,0.301,0.417,0.447l165.278,165.859V488.484z"/>
			<path d="M162.814,116.289c-25.695,0-46.524,20.83-46.524,46.524s20.83,46.524,46.524,46.524s46.524-20.83,46.524-46.524
				S188.508,116.289,162.814,116.289z M162.814,186.076c-12.847,0-23.262-10.415-23.262-23.262s10.415-23.262,23.262-23.262
				s23.262,10.415,23.262,23.262S175.661,186.076,162.814,186.076z"/>
		</g>
	</g>
</g>
<g>
</g>
<g>
</g>
<g>
</g>
<g>
</g>
<g>
</g>
<g>
</g>
<g>
</g>
<g>
</g>
<g>
</g>
<g>
</g>
<g>
</g>
<g>
</g>
<g>
</g>
<g>
</g>
<g>
</g>
</svg>
