<?xml version="1.0" encoding="iso-8859-1"?>
<!-- Generator: Adobe Illustrator 19.0.0, SVG Export Plug-In . SVG Version: 6.00 Build 0)  -->
<svg version="1.1" id="Capa_1" xmlns="http://www.w3.org/2000/svg" xmlns:xlink="http://www.w3.org/1999/xlink" x="0px" y="0px"
	 viewBox="0 0 512 512" style="enable-background:new 0 0 512 512;" xml:space="preserve">
<g>
	<g>
		<g>
			<path d="M337.92,307.2h-51.016l-21.361-54.927c-3.072-7.823-16.015-7.823-19.087,0L225.096,307.2H174.08
				c-4.362,0-8.253,2.765-9.687,6.902c-1.413,4.117-0.082,8.704,3.359,11.407l42.209,33.157l-18.33,58.102
				c-1.331,4.239,0.205,8.847,3.83,11.428c3.645,2.601,8.54,2.519,12.063-0.164L256,391.68l48.476,36.352
				c1.802,1.372,3.973,2.048,6.144,2.048c2.068,0,4.137-0.614,5.919-1.884c3.625-2.58,5.161-7.188,3.83-11.428l-18.33-58.102
				l42.209-33.157c3.441-2.703,4.772-7.291,3.359-11.407C346.173,309.965,342.282,307.2,337.92,307.2z M283.791,346.911
				c-3.338,2.642-4.71,7.086-3.42,11.141l10.875,34.468l-29.102-21.832c-1.823-1.372-3.994-2.048-6.144-2.048
				c-2.15,0-4.321,0.676-6.144,2.048l-29.102,21.832l10.875-34.468c1.29-4.055-0.082-8.499-3.42-11.141l-24.515-19.231H232.1
				c4.239,0,8.028-2.601,9.544-6.513L256,284.262l14.357,36.905c1.516,3.912,5.304,6.513,9.544,6.513h28.406L283.791,346.911z"/>
			<path d="M349.184,191.119l39.69-178.667c0.676-3.031-0.061-6.185-2.007-8.602C384.922,1.393,381.993,0,378.88,0H133.12
				c-3.113,0-6.042,1.393-7.987,3.85c-1.946,2.417-2.683,5.571-2.007,8.602l39.69,178.667
				C114.278,222.065,81.92,276.214,81.92,337.92C81.92,433.91,160.01,512,256,512s174.08-78.09,174.08-174.08
				C430.08,276.214,397.722,222.065,349.184,191.119z M326.615,20.48H366.1l-35.574,160.154c-1.147-0.553-2.355-0.963-3.502-1.495
				c-2.13-0.942-4.239-1.864-6.39-2.724c-3.482-1.413-6.984-2.683-10.527-3.85c-0.143-0.041-0.266-0.102-0.389-0.143L326.615,20.48z
				 M266.24,20.48h39.752L289.69,167.178c-2.376-0.451-4.772-0.737-7.168-1.106c-1.946-0.287-3.891-0.655-5.837-0.901
				c-3.441-0.389-6.943-0.614-10.445-0.819V20.48z M245.76,20.48v143.872c-3.523,0.205-7.025,0.43-10.486,0.84
				c-1.884,0.225-3.789,0.594-5.693,0.86c-2.417,0.389-4.874,0.655-7.27,1.126L206.008,20.48H245.76z M145.9,20.48h39.485
				l16.896,151.941c-0.123,0.041-0.266,0.102-0.389,0.143c-3.543,1.167-7.066,2.437-10.527,3.85c-2.15,0.86-4.28,1.782-6.369,2.724
				c-1.167,0.532-2.376,0.942-3.523,1.495L145.9,20.48z M256,491.52c-84.705,0-153.6-68.895-153.6-153.6
				c0-57.795,32.092-108.175,79.38-134.41c0.061,0,0.123,0,0.184-0.021c5.038-2.847,10.24-5.304,15.524-7.537
				c2.007-0.84,4.096-1.495,6.144-2.253c2.949-1.085,5.919-2.13,8.929-3.011c2.54-0.778,5.141-1.393,7.741-2.007
				c4.117-0.942,8.192-1.761,12.268-2.376c1.679-0.266,3.338-0.573,5.038-0.778c12.268-1.454,24.494-1.454,36.721,0
				c1.782,0.205,3.543,0.532,5.325,0.819c3.953,0.594,7.885,1.372,11.817,2.273c2.662,0.635,5.325,1.27,7.926,2.048
				c3.052,0.901,6.042,1.946,9.032,3.052c2.028,0.737,4.076,1.413,6.062,2.232c5.304,2.232,10.506,4.69,15.544,7.537
				c0.061,0.02,0.123,0.02,0.184,0.02c47.288,26.235,79.38,76.616,79.38,134.41C409.6,422.625,340.705,491.52,256,491.52z"/>
		</g>
	</g>
</g>
<g>
</g>
<g>
</g>
<g>
</g>
<g>
</g>
<g>
</g>
<g>
</g>
<g>
</g>
<g>
</g>
<g>
</g>
<g>
</g>
<g>
</g>
<g>
</g>
<g>
</g>
<g>
</g>
<g>
</g>
</svg>
