<?xml version="1.0" encoding="iso-8859-1"?>
<!-- Generator: Adobe Illustrator 19.0.0, SVG Export Plug-In . SVG Version: 6.00 Build 0)  -->
<svg version="1.1" id="Capa_1" xmlns="http://www.w3.org/2000/svg" xmlns:xlink="http://www.w3.org/1999/xlink" x="0px" y="0px"
	 viewBox="0 0 498 498" style="enable-background:new 0 0 498 498;" xml:space="preserve">
<g>
	<g>
		<path  d="M62.6,83.5c-17,0-30.9,13.8-30.9,30.9c0,17.1,13.9,30.8,30.9,30.8s30.9-13.8,30.9-30.9C93.4,97.3,79.6,83.5,62.6,83.5z
			 M62.6,125.2c-6,0-10.9-4.9-10.9-10.9s4.9-10.9,10.9-10.9s10.9,4.9,10.9,10.9S68.6,125.2,62.6,125.2z"/>
	</g>
</g>
<g>
	<g>
		<path  d="M497.5,378.7l-0.3-32.3c0.1-0.7,0.1-1.3,0.1-2c0-8-5.3-14.6-15.3-19.8V155.9c0-21.4-17.4-38.7-38.8-38.7h-0.1H422V92.4
			c0-21.5-17.2-39.2-38.7-39.2H39.1C17.5,53.3,0.1,70.8,0,92.4v180.3c0,21.5,17.7,38.5,39.1,38.5H60v24.9c0,21.5,17.3,39,38.9,39.1
			h81.7c4.1,14.8,12.5,28,24.1,37.9c28.2,24.4,69.6,25.5,99.1,2.6c11.9,2.5,24,3.8,36.1,4c2.4,6.3,9.4,13.4,26.2,18.5
			c14,4.3,32.5,6.6,52.1,6.6c29.6,0,79.8-6.6,79.8-31.5v-0.1L497.5,378.7z M422,137.2h21.1c10.4-0.1,18.8,8.2,18.9,18.6v0.1v161.9
			c-11.8-2.6-23.9-4.2-36-4.6V286c0-0.5,0.1-1.1,0.1-1.7c0-0.5-0.1-0.9-0.1-1.4v-26.3c0.8-2,1.2-4.1,1.1-6.2c0-3.2-1.1-7.5-5.1-11.9
			V137.2z M416,333.2h0.8c20,0,39.3,2.7,51.6,7.4c2.8,1,5.4,2.3,7.8,4c-5.6,4.2-25.8,11.4-59.4,11.4c-33.4,0-53.3-7.3-58.5-11.4
			c2.1-1.6,6.8-4.2,16.1-6.6C385.9,334.8,400.7,333.2,416,333.2z M406.1,283.4H406c-4,4.8-27.5,12.9-61.2,12.9
			c-15,0-29.6-1.6-41.2-4.4c-5.3-4.1-11.2-7.5-17.4-10.1l-0.2-9c16,6.5,38.7,9.1,58.9,9.1c16.8,0,43.2-2.2,61.2-9.3V283.4z
			 M403.7,251.6c-3,1.6-7.9,3.6-15.6,5.5c-12.4,3-27.8,4.7-43.4,4.7c-33.4,0-53.3-7.3-58.5-11.4c5.3-4.1,25.1-11.4,58.5-11.4
			c19.9,0,45.4,3.3,57.8,9.6C402.7,249.6,403.1,250.7,403.7,251.6z M39.1,291.1v0.1c-10.4,0-19.1-8.1-19.1-18.5V92.5
			c0.1-10.6,8.6-19.1,19.1-19.2h344.2c10.5,0,18.7,8.8,18.7,19.2V227c-15-5-35.3-8-57.4-8c-18.8,0-45.7,2.7-62.9,11
			c26.1-38.9,15.7-91.5-23.2-117.6c-38.9-26.1-91.5-15.7-117.6,23.2c-26.1,38.9-15.7,91.5,23.2,117.6c31.2,20.9,72.4,18.8,101.3-5.2
			c-0.1,0.8-0.2,1.6-0.2,2.4s0.1,1.5,0.2,2.2l0.6,23.7c-3.3-0.5-6.7-0.8-10.1-0.9c-17,0-33.6,5.5-47.3,15.7H39.1z M276.2,182.5
			c0,35.9-29.1,65-65,65c-35.9,0-65-29.1-65-65c0-35.9,29.1-65,65-65C247.1,117.6,276.2,146.7,276.2,182.5z M177.7,353.8
			c0,0.4,0,0.4,0,1.4H98.9c-10.5-0.1-18.9-8.6-18.9-19.1v-24.9h110.1C182.1,323.9,177.7,338.7,177.7,353.8z M311.6,370.8
			c-9.3,30.8-41.8,48.1-72.6,38.8c-30.8-9.3-48.1-41.8-38.8-72.6c9.3-30.8,41.8-48.1,72.6-38.8c0.1,0,0.3,0.1,0.4,0.1
			c7.6,2.3,14.6,6.2,20.5,11.4c9.8,8.4,16.5,19.8,19.1,32.4v0.1C314.9,351.7,314.4,361.5,311.6,370.8z M320.3,398.3
			c3-4.3,5.5-8.9,7.5-13.6c3.4,0.3,6.9,0.4,10.5,0.5l0.2,14.5C332.2,399.5,326.1,399,320.3,398.3z M334,350.5
			c1.2,0.1,2.5,0.1,3.8,0.1l0.2,14.5c-1.6,0-3.1-0.1-4.7-0.2c0.5-3.7,0.8-7.3,0.8-11C334.1,352.8,334.1,351.7,334,350.5z
			 M343.7,330.8c-4.5,0-9-0.2-13.2-0.5c-1.6-5.2-3.8-10.2-6.5-14.9c6.7,0.6,13.7,0.9,20.8,0.9c18.8,0,37.2-2.3,51.7-6.6
			c3.5-1,6.6-2.2,9.6-3.4v6.9c-14,0.7-27.9,2.7-38.9,5.8C356.5,322,348.6,326,343.7,330.8z M358,366.8c16.1,6.5,39,9.1,58.8,9.1
			c18.8,0,36.9-2.2,51-6.3c3.2-0.9,6.4-2,9.5-3.3l0.1,10.6c-0.1,0.3-0.1,0.6-0.1,1c-3.3,3.9-24,12.4-60.5,12.4
			c-33.5,0-53.4-7.3-58.6-11.4L358,366.8z M418.1,424.9c-15.5,0-30.4-1.6-42.1-4.6c-11.4-2.9-16.1-6.2-17.3-7.5l-0.2-11.3
			c16.2,6.4,38.9,8.9,58.2,8.9c18,0,43.5-2.4,60.9-9.7l0.1,11.9C474.5,416.5,454.1,424.9,418.1,424.9z"/>
	</g>
</g>
<g>
	<g>
		<path  d="M255.9,309.1c-24.7,0-44.8,20.1-44.8,44.8c0,24.7,20.1,44.8,44.8,44.8s44.8-20.1,44.8-44.8
			C300.7,329.2,280.6,309.1,255.9,309.1z M255.9,378.7c-13.7,0-24.8-11.1-24.8-24.8c0-13.7,11.1-24.8,24.8-24.8s24.8,11.1,24.8,24.8
			C280.7,367.6,269.6,378.7,255.9,378.7z"/>
	</g>
</g>
<g>
</g>
<g>
</g>
<g>
</g>
<g>
</g>
<g>
</g>
<g>
</g>
<g>
</g>
<g>
</g>
<g>
</g>
<g>
</g>
<g>
</g>
<g>
</g>
<g>
</g>
<g>
</g>
<g>
</g>
</svg>
