<?xml version="1.0" encoding="iso-8859-1"?>
<!-- Generator: Adobe Illustrator 19.0.0, SVG Export Plug-In . SVG Version: 6.00 Build 0)  -->
<svg version="1.1" id="Capa_1" xmlns="http://www.w3.org/2000/svg" xmlns:xlink="http://www.w3.org/1999/xlink" x="0px" y="0px"
	 viewBox="0 0 512 512" style="enable-background:new 0 0 512 512;" xml:space="preserve">
<g>
	<g>
		<path d="M256,0C114.615,0,0,114.615,0,256s114.615,256,256,256s256-114.615,256-256S397.385,0,256,0z M244.364,488.146
			C124.974,482.326,29.406,387.01,23.273,267.636h48.524c3.992,11.154,13.368,19.522,24.902,22.225
			c14.919,71.143,75.166,123.793,147.665,129.047V488.146z M244.364,395.055c-60.507-5.086-110.792-48.691-124.393-107.869
			c8.136-4.002,14.396-11.013,17.455-19.549h61.673c4.644,22.824,22.453,40.679,45.265,45.382V395.055z M244.364,198.982
			c-22.812,4.703-40.621,22.558-45.265,45.382h-61.673c-3.033-8.58-9.296-15.636-17.455-19.665
			c13.425-59.361,63.75-103.19,124.393-108.335V198.982z M244.364,93.091c-72.189,5.13-132.339,57.27-147.665,128
			c-11.781,2.903-21.21,11.715-24.902,23.273H23.273C29.406,124.99,124.974,29.674,244.364,23.855V93.091z M267.636,23.273
			c119.601,5.844,215.246,101.49,221.091,221.091h-69.818c-1.973-27.751-11.071-54.523-26.415-77.731
			c2.198-4.816,3.273-10.068,3.142-15.36c-0.09-19.28-15.792-34.836-35.071-34.746c-5.27,0.025-10.466,1.242-15.198,3.561
			c-23.21-15.339-49.981-24.436-77.731-26.415V23.273z M267.636,116.364c21.7,1.813,42.668,8.709,61.207,20.131
			c-2.073,4.647-3.106,9.69-3.025,14.778c0.005,19.28,15.638,34.905,34.918,34.901c4.888-0.001,9.722-1.029,14.188-3.017
			c11.631,18.485,18.728,39.458,20.713,61.207h-82.735c-4.644-22.824-22.453-40.679-45.265-45.382V116.364z M267.636,313.018
			c22.812-4.703,40.621-22.558,45.265-45.382h82.735c-5.489,68.29-59.71,122.511-128,128V313.018z M267.636,488.146v-0.582v-69.818
			c80.698-5.542,145.107-69.456,151.273-150.109h69.818C482.594,387.01,387.026,482.326,267.636,488.146z"/>
	</g>
</g>
<g>
</g>
<g>
</g>
<g>
</g>
<g>
</g>
<g>
</g>
<g>
</g>
<g>
</g>
<g>
</g>
<g>
</g>
<g>
</g>
<g>
</g>
<g>
</g>
<g>
</g>
<g>
</g>
<g>
</g>
</svg>
