<?xml version="1.0" encoding="UTF-8"?><!DOCTYPE svg PUBLIC "-//W3C//DTD SVG 1.1//EN" "http://www.w3.org/Graphics/SVG/1.1/DTD/svg11.dtd"><svg xmlns="http://www.w3.org/2000/svg" xmlns:xlink="http://www.w3.org/1999/xlink" xmlns:dc="http://purl.org/dc/elements/1.1/" xmlns:cc="http://creativecommons.org/ns#" xmlns:rdf="http://www.w3.org/1999/02/22-rdf-syntax-ns#" xmlns:svg="http://www.w3.org/2000/svg" xmlns:sodipodi="http://sodipodi.sourceforge.net/DTD/sodipodi-0.dtd" xmlns:inkscape="http://www.inkscape.org/namespaces/inkscape">


	<symbol id="email" viewBox="0 0 510 510" >
		<g >
			<path d="M459,51H51C22.95,51,0,73.95,0,102v306c0,28.05,22.95,51,51,51h408c28.05,0,51-22.95,51-51V102
			C510,73.95,487.05,51,459,51z M459,153L255,280.5L51,153v-51l204,127.5L459,102V153z"/>
		</g>
	</symbol>

	<symbol id="facebook" viewBox="0 0 455.73 455.73" >
		<rect x="0" y="0"  width="455.731" height="455.731"/>
<path style="fill:#3f4040;" d="M0,0v455.73h242.704V279.691h-59.33v-71.864h59.33v-60.353c0-43.893,35.582-79.475,79.475-79.475
	h62.025v64.622h-44.382c-13.947,0-25.254,11.307-25.254,25.254v49.953h68.521l-9.47,71.864h-59.051V455.73H455.73V0H0z"/>
</symbol>

	<symbol  id="linkedin" viewBox="0 0 455.731 455.731" >
		<rect x="0" y="0" style="fill:#3f4040;" width="455.731" height="455.731"/>
		<path  d="M107.255,69.215c20.873,0.017,38.088,17.257,38.043,38.234c-0.05,21.965-18.278,38.52-38.3,38.043
			c-20.308,0.411-38.155-16.551-38.151-38.188C68.847,86.319,86.129,69.199,107.255,69.215z"/>
		<path  d="M129.431,386.471H84.71c-5.804,0-10.509-4.705-10.509-10.509V185.18
			c0-5.804,4.705-10.509,10.509-10.509h44.721c5.804,0,10.509,4.705,10.509,10.509v190.783
			C139.939,381.766,135.235,386.471,129.431,386.471z"/>
		<path  d="M386.884,241.682c0-39.996-32.423-72.42-72.42-72.42h-11.47c-21.882,0-41.214,10.918-52.842,27.606
			c-1.268,1.819-2.442,3.708-3.52,5.658c-0.373-0.056-0.594-0.085-0.599-0.075v-23.418c0-2.409-1.953-4.363-4.363-4.363h-55.795
			c-2.409,0-4.363,1.953-4.363,4.363V382.11c0,2.409,1.952,4.362,4.361,4.363l57.011,0.014c2.41,0.001,4.364-1.953,4.364-4.363
			V264.801c0-20.28,16.175-37.119,36.454-37.348c10.352-0.117,19.737,4.031,26.501,10.799c6.675,6.671,10.802,15.895,10.802,26.079
			v117.808c0,2.409,1.953,4.362,4.361,4.363l57.152,0.014c2.41,0.001,4.364-1.953,4.364-4.363V241.682z"/>
</symbol>

	<symbol id="skype" viewBox="0 0 455.731 455.731" >

		<rect x="0" y="0" style="fill:#3f4040;" width="455.731" height="455.731"/>
	<path d="M379.742,257.242c1.77-9.097,2.708-18.492,2.708-28.107c0-80.82-65.518-146.338-146.338-146.338
		c-9.615,0-19.01,0.938-28.107,2.708c-12.507-7.319-27.052-11.532-42.589-11.532c-46.65,0-84.467,37.817-84.467,84.467
		c0,15.537,4.214,30.082,11.532,42.588c-1.77,9.097-2.708,18.492-2.708,28.107c0,80.82,65.518,146.338,146.338,146.338
		c9.615,0,19.01-0.938,28.107-2.708c12.507,7.319,27.052,11.532,42.588,11.532c46.65,0,84.467-37.817,84.467-84.467
		C391.275,284.293,387.061,269.749,379.742,257.242z M238.892,329.634c-52,0-78-19.5-86-44s9.5-31.5,15-32s17.167,0.833,20.5,11
		c3.465,10.567,15,31.5,40,34s41.5-9,46.5-21s-4-28.5-42.5-34s-78.5-22.5-78.5-61s44-54,86-54s63.293,23.721,68,33
		c5.833,11.5,3.833,30.661-10,34c-14.5,3.5-22-4.5-32.5-24c-10.858-20.165-49.5-15-62.5-3.5s-9.5,28,44.5,38.5s74,30,74,60.5
		S290.892,329.634,238.892,329.634z"/>
</symbol>

	<symbol id="viber" viewBox="0 0 455.731 455.731">

	<rect x="0" y="0" style="fill:#3f4040;" width="455.731" height="455.731"/>
		<path d="M371.996,146.901l-0.09-0.36c-7.28-29.43-40.1-61.01-70.24-67.58l-0.34-0.07
			c-48.75-9.3-98.18-9.3-146.92,0l-0.35,0.07c-30.13,6.57-62.95,38.15-70.24,67.58l-0.08,0.36c-9,41.1-9,82.78,0,123.88l0.08,0.36
			c6.979,28.174,37.355,58.303,66.37,66.589v32.852c0,11.89,14.49,17.73,22.73,9.15l33.285-34.599
			c7.219,0.404,14.442,0.629,21.665,0.629c24.54,0,49.09-2.32,73.46-6.97l0.34-0.07c30.14-6.57,62.96-38.15,70.24-67.58l0.09-0.36
			C380.996,229.681,380.996,188.001,371.996,146.901z M345.656,264.821c-4.86,19.2-29.78,43.07-49.58,47.48
			c-25.921,4.929-52.047,7.036-78.147,6.313c-0.519-0.014-1.018,0.187-1.38,0.559c-3.704,3.802-24.303,24.948-24.303,24.948
			l-25.85,26.53c-1.89,1.97-5.21,0.63-5.21-2.09v-54.422c0-0.899-0.642-1.663-1.525-1.836c-0.005-0.001-0.01-0.002-0.015-0.003
			c-19.8-4.41-44.71-28.28-49.58-47.48c-8.1-37.15-8.1-74.81,0-111.96c4.87-19.2,29.78-43.07,49.58-47.48
			c45.27-8.61,91.17-8.61,136.43,0c19.81,4.41,44.72,28.28,49.58,47.48C353.765,190.011,353.765,227.671,345.656,264.821z"/>
		<path  d="M270.937,289.942c-3.044-0.924-5.945-1.545-8.639-2.663
			c-27.916-11.582-53.608-26.524-73.959-49.429c-11.573-13.025-20.631-27.73-28.288-43.292c-3.631-7.38-6.691-15.049-9.81-22.668
			c-2.844-6.948,1.345-14.126,5.756-19.361c4.139-4.913,9.465-8.673,15.233-11.444c4.502-2.163,8.943-0.916,12.231,2.9
			c7.108,8.25,13.637,16.922,18.924,26.485c3.251,5.882,2.359,13.072-3.533,17.075c-1.432,0.973-2.737,2.115-4.071,3.214
			c-1.17,0.963-2.271,1.936-3.073,3.24c-1.466,2.386-1.536,5.2-0.592,7.794c7.266,19.968,19.513,35.495,39.611,43.858
			c3.216,1.338,6.446,2.896,10.151,2.464c6.205-0.725,8.214-7.531,12.562-11.087c4.25-3.475,9.681-3.521,14.259-0.624
			c4.579,2.898,9.018,6.009,13.43,9.153c4.331,3.086,8.643,6.105,12.638,9.623c3.841,3.383,5.164,7.821,3.001,12.412
			c-3.96,8.408-9.722,15.403-18.034,19.868C276.387,288.719,273.584,289.127,270.937,289.942
			C267.893,289.017,273.584,289.127,270.937,289.942z"/>
		<path  d="M227.942,131.471c36.515,1.023,66.506,25.256,72.933,61.356c1.095,6.151,1.485,12.44,1.972,18.683
			c0.205,2.626-1.282,5.121-4.116,5.155c-2.927,0.035-4.244-2.414-4.434-5.039c-0.376-5.196-0.637-10.415-1.353-15.568
			c-3.78-27.201-25.47-49.705-52.545-54.534c-4.074-0.727-8.244-0.918-12.371-1.351c-2.609-0.274-6.026-0.432-6.604-3.675
			c-0.485-2.719,1.81-4.884,4.399-5.023C226.527,131.436,227.235,131.468,227.942,131.471
			C264.457,132.494,227.235,131.468,227.942,131.471z"/>
		<path  d="M283.434,203.407c-0.06,0.456-0.092,1.528-0.359,2.538c-0.969,3.666-6.527,4.125-7.807,0.425
			c-0.379-1.098-0.436-2.347-0.438-3.529c-0.013-7.734-1.694-15.46-5.594-22.189c-4.009-6.916-10.134-12.73-17.318-16.248
			c-4.344-2.127-9.042-3.449-13.803-4.237c-2.081-0.344-4.184-0.553-6.275-0.844c-2.534-0.352-3.887-1.967-3.767-4.464
			c0.112-2.34,1.822-4.023,4.372-3.879c8.38,0.476,16.474,2.287,23.924,6.232c15.15,8.023,23.804,20.687,26.33,37.597
			c0.114,0.766,0.298,1.525,0.356,2.294C283.198,199.002,283.288,200.903,283.434,203.407
			C283.374,203.863,283.288,200.903,283.434,203.407z"/>
		<path  d="M260.722,202.523c-3.055,0.055-4.69-1.636-5.005-4.437c-0.219-1.953-0.392-3.932-0.858-5.832
			c-0.918-3.742-2.907-7.21-6.055-9.503c-1.486-1.083-3.17-1.872-4.934-2.381c-2.241-0.647-4.568-0.469-6.804-1.017
			c-2.428-0.595-3.771-2.561-3.389-4.839c0.347-2.073,2.364-3.691,4.629-3.527c14.157,1.022,24.275,8.341,25.719,25.007
			c0.102,1.176,0.222,2.419-0.039,3.544C263.539,201.464,262.113,202.429,260.722,202.523
			C257.667,202.578,262.113,202.429,260.722,202.523z"/>

</symbol>


</svg>