<?xml version="1.0" encoding="UTF-8"?><!DOCTYPE svg PUBLIC "-//W3C//DTD SVG 1.1//EN" "http://www.w3.org/Graphics/SVG/1.1/DTD/svg11.dtd"><svg xmlns="http://www.w3.org/2000/svg" xmlns:xlink="http://www.w3.org/1999/xlink" xmlns:dc="http://purl.org/dc/elements/1.1/" xmlns:cc="http://creativecommons.org/ns#" xmlns:rdf="http://www.w3.org/1999/02/22-rdf-syntax-ns#" xmlns:svg="http://www.w3.org/2000/svg" xmlns:sodipodi="http://sodipodi.sourceforge.net/DTD/sodipodi-0.dtd" xmlns:inkscape="http://www.inkscape.org/namespaces/inkscape">


	<symbol id="email" viewBox="0 0 510 510" >
		<g >
			<path d="M459,51H51C22.95,51,0,73.95,0,102v306c0,28.05,22.95,51,51,51h408c28.05,0,51-22.95,51-51V102
			C510,73.95,487.05,51,459,51z M459,153L255,280.5L51,153v-51l204,127.5L459,102V153z"/>
		</g>
	</symbol>

	<symbol id="calendar" viewBox="0 0 512 512" >

		    <rect x="176" y="192" width="64" height="64"/>
			<rect x="272" y="192" width="64" height="64"/>
			<rect x="368" y="192" width="64" height="64"/>
			<rect x="80" y="288" width="64" height="64"/>
			<rect x="176" y="288" width="64" height="64"/>
			<rect x="272" y="288" width="64" height="64"/>
			<rect x="368" y="288" width="64" height="64"/>
			<rect x="80" y="384" width="64" height="64"/>
			<rect x="176" y="384" width="64" height="64"/>
			<rect x="272" y="384" width="64" height="64"/>
			<path d="M432,64V16c0-8.801-7.168-16-16-16h-64c-8.832,0-16,7.199-16,16v48H176V16c0-8.801-7.168-16-16-16H96
				c-8.832,0-16,7.199-16,16v48H16v448h480V64H432z M368,32h32v64h-32V32z M112,32h32v64h-32V32z M464,480H48V160h416V480z"/>
	</symbol>

	<symbol id="facebook" viewBox="0 0 486.392 486.392">
			<path  d="M243.196,0C108.891,0,0,108.891,0,243.196s108.891,243.196,243.196,243.196
				s243.196-108.891,243.196-243.196C486.392,108.861,377.501,0,243.196,0z M306.062,243.165l-39.854,0.03l-0.03,145.917h-54.689
				V243.196H175.01v-50.281l36.479-0.03l-0.061-29.609c0-41.039,11.126-65.997,59.431-65.997h40.249v50.311h-25.171
				c-18.817,0-19.729,7.022-19.729,20.124l-0.061,25.171h45.234L306.062,243.165z"/>

</symbol>

	<symbol id="tweeter" viewBox="0 0 486.392 486.392" >

		<path  d="M243.196,0C108.891,0,0,108.891,0,243.196s108.891,243.196,243.196,243.196
			s243.196-108.891,243.196-243.196C486.392,108.861,377.501,0,243.196,0z M364.186,188.598l0.182,7.752
			c0,79.16-60.221,170.359-170.359,170.359c-33.804,0-65.268-9.91-91.776-26.904c4.682,0.547,9.454,0.851,14.288,0.851
			c28.059,0,53.868-9.576,74.357-25.627c-26.204-0.486-48.305-17.814-55.935-41.586c3.678,0.699,7.387,1.034,11.278,1.034
			c5.472,0,10.761-0.699,15.777-2.067c-27.39-5.533-48.031-29.7-48.031-58.701v-0.76c8.086,4.499,17.297,7.174,27.116,7.509
			c-16.051-10.731-26.63-29.062-26.63-49.825c0-10.974,2.949-21.249,8.086-30.095c29.518,36.236,73.658,60.069,123.422,62.562
			c-1.034-4.378-1.55-8.968-1.55-13.649c0-33.044,26.812-59.857,59.887-59.857c17.206,0,32.771,7.265,43.714,18.908
			c13.619-2.706,26.448-7.691,38.03-14.531c-4.469,13.984-13.953,25.718-26.326,33.135c12.069-1.429,23.651-4.682,34.382-9.424
			C386.073,169.659,375.889,180.208,364.186,188.598z"/>
</symbol>

	<svg id="google+" viewBox="0 0 486.392 486.392" >

			<path d="M243.196,0C108.891,0,0,108.891,0,243.196s108.891,243.196,243.196,243.196
				s243.196-108.891,243.196-243.196C486.392,108.861,377.501,0,243.196,0z M175.344,406.836c-53.837,0-99.254-21.918-99.254-56.938
				c0-35.537,41.434-69.858,95.272-69.828l16.811-0.152c-7.357-7.144-13.193-15.929-13.193-26.782
				c0-6.445,2.067-12.616,4.925-18.118l-8.968,0.304c-44.231,0-73.84-31.463-73.84-70.466c0-38.151,40.887-71.074,84.359-71.074
				h96.974l-21.766,15.686h-30.734c20.398,7.843,31.251,31.615,31.251,55.996c0,20.459-11.339,38.091-27.36,50.615
				c-15.656,12.251-18.604,17.358-18.604,27.755c0,8.877,16.781,23.955,25.536,30.187c25.627,18.118,33.865,34.929,33.865,62.988
				C270.616,372.029,236.721,406.836,175.344,406.836z M364.794,213.374v60.708h-30.369v-60.708h-60.829v-30.977h60.829v-60.799
				h30.369v60.799h60.799v30.977H364.794z"/>
			<path  d="M205.774,293.021c-7.357-2.371-15.473-3.8-24.137-3.891
				c-37.209-0.395-70.527,22.678-70.527,50.433c0,28.332,26.873,51.861,64.082,51.861c52.317,0,70.527-22.131,70.527-50.402
				c0-3.405-0.426-6.749-1.186-10.001C240.46,314.969,225.959,307.035,205.774,293.021z"/>
			<path  d="M222.342,167.349c-4.317-32.771-28.059-59.097-53.017-59.857
				c-24.958-0.73-41.708,24.35-37.391,57.181c4.317,32.801,28.059,60.009,53.047,60.738
				C209.908,226.172,226.689,200.181,222.342,167.349z"/>
</svg>
	<symbol id="search" viewBox="0 0 512 512" >
		<g>
			<path  d="M495,466.2L377.2,348.4c29.2-35.6,46.8-81.2,46.8-130.9C424,103.5,331.5,11,217.5,11C103.4,11,11,103.5,11,217.5   S103.4,424,217.5,424c49.7,0,95.2-17.5,130.8-46.7L466.1,495c8,8,20.9,8,28.9,0C503,487.1,503,474.1,495,466.2z M217.5,382.9   C126.2,382.9,52,308.7,52,217.5S126.2,52,217.5,52C308.7,52,383,126.3,383,217.5S308.7,382.9,217.5,382.9z"/>
		</g>
	</symbol>


	<symbol id="profitss" viewBox="0 0 496 496" >
<g style="opacity:0.2;">
	<circle style="fill:#102D35;" cx="44" cy="29.2" r="7.2"/>
	<circle style="fill:#102D35;" cx="89.6" cy="29.2" r="7.2"/>
	<circle style="fill:#102D35;" cx="134.4" cy="29.2" r="7.2"/>
	<circle style="fill:#102D35;" cx="180" cy="29.2" r="7.2"/>
	<circle style="fill:#102D35;" cx="225.6" cy="29.2" r="7.2"/>
	<circle style="fill:#102D35;" cx="270.4" cy="29.2" r="7.2"/>
	<circle style="fill:#102D35;" cx="316" cy="29.2" r="7.2"/>
	<circle style="fill:#102D35;" cx="361.6" cy="29.2" r="7.2"/>
	<circle style="fill:#102D35;" cx="406.4" cy="29.2" r="7.2"/>
	<circle style="fill:#102D35;" cx="452" cy="29.2" r="7.2"/>
	<circle style="fill:#102D35;" cx="44" cy="71.6" r="7.2"/>
	<circle style="fill:#102D35;" cx="89.6" cy="71.6" r="7.2"/>
	<circle style="fill:#102D35;" cx="134.4" cy="71.6" r="7.2"/>
	<circle style="fill:#102D35;" cx="180" cy="71.6" r="7.2"/>
	<circle style="fill:#102D35;" cx="225.6" cy="71.6" r="7.2"/>
	<circle style="fill:#102D35;" cx="270.4" cy="71.6" r="7.2"/>
	<circle style="fill:#102D35;" cx="316" cy="71.6" r="7.2"/>
	<circle style="fill:#102D35;" cx="361.6" cy="71.6" r="7.2"/>
	<circle style="fill:#102D35;" cx="406.4" cy="71.6" r="7.2"/>
	<circle style="fill:#102D35;" cx="452" cy="71.6" r="7.2"/>
	<circle style="fill:#102D35;" cx="44" cy="113.2" r="7.2"/>
	<circle style="fill:#102D35;" cx="89.6" cy="113.2" r="7.2"/>
	<circle style="fill:#102D35;" cx="134.4" cy="113.2" r="7.2"/>
	<circle style="fill:#102D35;" cx="180" cy="113.2" r="7.2"/>
	<circle style="fill:#102D35;" cx="225.6" cy="113.2" r="7.2"/>
	<circle style="fill:#102D35;" cx="270.4" cy="113.2" r="7.2"/>
	<circle style="fill:#102D35;" cx="316" cy="113.2" r="7.2"/>
	<circle style="fill:#102D35;" cx="361.6" cy="113.2" r="7.2"/>
	<circle style="fill:#102D35;" cx="406.4" cy="113.2" r="7.2"/>
	<circle style="fill:#102D35;" cx="452" cy="113.2" r="7.2"/>
	<circle style="fill:#102D35;" cx="44" cy="155.6" r="7.2"/>
	<circle style="fill:#102D35;" cx="89.6" cy="155.6" r="7.2"/>
	<circle style="fill:#102D35;" cx="134.4" cy="155.6" r="7.2"/>
	<circle style="fill:#102D35;" cx="180" cy="155.6" r="7.2"/>
	<circle style="fill:#102D35;" cx="225.6" cy="155.6" r="7.2"/>
	<circle style="fill:#102D35;" cx="270.4" cy="155.6" r="7.2"/>
	<circle style="fill:#102D35;" cx="316" cy="155.6" r="7.2"/>
	<circle style="fill:#102D35;" cx="361.6" cy="155.6" r="7.2"/>
	<circle style="fill:#102D35;" cx="406.4" cy="155.6" r="7.2"/>
	<circle style="fill:#102D35;" cx="452" cy="155.6" r="7.2"/>
	<circle style="fill:#102D35;" cx="44" cy="197.2" r="7.2"/>
	<circle style="fill:#102D35;" cx="89.6" cy="197.2" r="7.2"/>
	<circle style="fill:#102D35;" cx="134.4" cy="197.2" r="7.2"/>
	<circle style="fill:#102D35;" cx="180" cy="197.2" r="7.2"/>
	<circle style="fill:#102D35;" cx="225.6" cy="197.2" r="7.2"/>
	<circle style="fill:#102D35;" cx="270.4" cy="197.2" r="7.2"/>
	<circle style="fill:#102D35;" cx="316" cy="197.2" r="7.2"/>
	<circle style="fill:#102D35;" cx="361.6" cy="197.2" r="7.2"/>
	<circle style="fill:#102D35;" cx="406.4" cy="197.2" r="7.2"/>
	<circle style="fill:#102D35;" cx="452" cy="197.2" r="7.2"/>
	<circle style="fill:#102D35;" cx="44" cy="239.6" r="7.2"/>
	<circle style="fill:#102D35;" cx="89.6" cy="239.6" r="7.2"/>
	<circle style="fill:#102D35;" cx="134.4" cy="239.6" r="7.2"/>
	<circle style="fill:#102D35;" cx="180" cy="239.6" r="7.2"/>
	<circle style="fill:#102D35;" cx="225.6" cy="239.6" r="7.2"/>
	<circle style="fill:#102D35;" cx="270.4" cy="239.6" r="7.2"/>
	<circle style="fill:#102D35;" cx="316" cy="239.6" r="7.2"/>
	<circle style="fill:#102D35;" cx="361.6" cy="239.6" r="7.2"/>
	<circle style="fill:#102D35;" cx="406.4" cy="239.6" r="7.2"/>
	<circle style="fill:#102D35;" cx="452" cy="239.6" r="7.2"/>
	<circle style="fill:#102D35;" cx="44" cy="282" r="7.2"/>
	<circle style="fill:#102D35;" cx="89.6" cy="282" r="7.2"/>
	<circle style="fill:#102D35;" cx="134.4" cy="282" r="7.2"/>
	<circle style="fill:#102D35;" cx="180" cy="282" r="7.2"/>
	<circle style="fill:#102D35;" cx="225.6" cy="282" r="7.2"/>
	<circle style="fill:#102D35;" cx="270.4" cy="282" r="7.2"/>
	<circle style="fill:#102D35;" cx="316" cy="282" r="7.2"/>
	<circle style="fill:#102D35;" cx="361.6" cy="282" r="7.2"/>
	<circle style="fill:#102D35;" cx="406.4" cy="282" r="7.2"/>
	<circle style="fill:#102D35;" cx="452" cy="282" r="7.2"/>
	<circle style="fill:#102D35;" cx="44" cy="323.6" r="7.2"/>
	<circle style="fill:#102D35;" cx="89.6" cy="323.6" r="7.2"/>
	<circle style="fill:#102D35;" cx="134.4" cy="323.6" r="7.2"/>
	<circle style="fill:#102D35;" cx="180" cy="323.6" r="7.2"/>
	<circle style="fill:#102D35;" cx="225.6" cy="323.6" r="7.2"/>
	<circle style="fill:#102D35;" cx="270.4" cy="323.6" r="7.2"/>
	<circle style="fill:#102D35;" cx="316" cy="323.6" r="7.2"/>
	<circle style="fill:#102D35;" cx="361.6" cy="323.6" r="7.2"/>
	<circle style="fill:#102D35;" cx="406.4" cy="323.6" r="7.2"/>
	<circle style="fill:#102D35;" cx="452" cy="323.6" r="7.2"/>
	<circle style="fill:#102D35;" cx="44" cy="366" r="7.2"/>
	<circle style="fill:#102D35;" cx="89.6" cy="366" r="7.2"/>
	<circle style="fill:#102D35;" cx="134.4" cy="366" r="7.2"/>
	<circle style="fill:#102D35;" cx="180" cy="366" r="7.2"/>
	<circle style="fill:#102D35;" cx="225.6" cy="366" r="7.2"/>
	<circle style="fill:#102D35;" cx="270.4" cy="366" r="7.2"/>
	<circle style="fill:#102D35;" cx="316" cy="366" r="7.2"/>
	<circle style="fill:#102D35;" cx="361.6" cy="366" r="7.2"/>
	<circle style="fill:#102D35;" cx="406.4" cy="366" r="7.2"/>
	<circle style="fill:#102D35;" cx="452" cy="366" r="7.2"/>
	<circle style="fill:#102D35;" cx="44" cy="407.6" r="7.2"/>
	<circle style="fill:#102D35;" cx="89.6" cy="407.6" r="7.2"/>
	<circle style="fill:#102D35;" cx="134.4" cy="407.6" r="7.2"/>
	<circle style="fill:#102D35;" cx="180" cy="407.6" r="7.2"/>
	<circle style="fill:#102D35;" cx="225.6" cy="407.6" r="7.2"/>
	<circle style="fill:#102D35;" cx="270.4" cy="407.6" r="7.2"/>
	<circle style="fill:#102D35;" cx="316" cy="407.6" r="7.2"/>
	<circle style="fill:#102D35;" cx="361.6" cy="407.6" r="7.2"/>
	<circle style="fill:#102D35;" cx="406.4" cy="407.6" r="7.2"/>
	<circle style="fill:#102D35;" cx="452" cy="407.6" r="7.2"/>
</g>
<path style="fill:#719FA3;" d="M496,462c0,6.4-5.6,12-12,12H12c-6.4,0-12-5.6-12-12l0,0c0-6.4,5.6-12,12-12h472
	C490.4,450,496,455.6,496,462L496,462z"/>
<path style="fill:#036089;" d="M236,140.4c24.8,0,44,20,44,44.8V362c0,24.8-19.2,44.8-44,44.8l0,0c-24.8,0-44-20-44-44.8V185.2
	C192,160.4,211.2,140.4,236,140.4L236,140.4z"/>
<path style="fill:#03406D;" d="M190.4,185.2c0-24.8,20-44.8,44.8-44.8l0,0c24.8,0,44.8,20,44.8,44.8V362c0,24.8-20,44.8-44.8,44.8
	l0,0"/>
<path style="fill:#1C9AAF;" d="M267.2,149.2c17.6,17.6,17.6,45.6,0,63.2L84.8,395.6c-17.6,17.6-45.6,17.6-63.2,0l0,0
	C4,378,4,350,21.6,332.4L204,150C220.8,132.4,249.6,132.4,267.2,149.2L267.2,149.2z"/>
<path style="fill:#1589AD;" d="M267.2,149.2L267.2,149.2c17.6,17.6,17.6,45.6,0,63.2L84.8,395.6c-17.6,17.6-45.6,17.6-63.2,0l0,0"/>
<path style="fill:#1C9AAF;" d="M488,113.2l-140,27.2l24.8,24.8L203.2,334c-17.6,17.6-17.6,45.6,0,63.2s45.6,17.6,63.2,0l168.8-168.8
	l24.8,24.8L488,113.2z"/>
<path style="fill:#1589AD;" d="M203.2,397.2c17.6,17.6,45.6,17.6,63.2,0l168.8-168.8l24.8,24.8l28-140"/>

</symbol>







</svg>