<?xml version="1.0" encoding="iso-8859-1"?>
<!-- Generator: Adobe Illustrator 19.0.0, SVG Export Plug-In . SVG Version: 6.00 Build 0)  -->
<svg version="1.1" id="Capa_1" xmlns="http://www.w3.org/2000/svg" xmlns:xlink="http://www.w3.org/1999/xlink" x="0px" y="0px"
	 viewBox="0 0 512 512" style="enable-background:new 0 0 512 512;" xml:space="preserve">
<g>
	<g>
		<path d="M256,40.96c-129.864,0-235.52,105.656-235.52,235.52S126.136,512,256,512s235.52-105.656,235.52-235.52
			S385.864,40.96,256,40.96z M256,491.52c-118.579,0-215.04-96.461-215.04-215.04S137.421,61.44,256,61.44
			s215.04,96.461,215.04,215.04S374.579,491.52,256,491.52z"/>
	</g>
</g>
<g>
	<g>
		<path d="M256,245.76c-16.937,0-30.72,13.783-30.72,30.72S239.063,307.2,256,307.2s30.72-13.783,30.72-30.72
			S272.937,245.76,256,245.76z M256,286.72c-5.652,0-10.24-4.608-10.24-10.24c0-5.632,4.588-10.24,10.24-10.24
			c5.652,0,10.24,4.608,10.24,10.24C266.24,282.112,261.652,286.72,256,286.72z"/>
	</g>
</g>
<g>
	<g>
		<path d="M256,0c-5.652,0-10.24,4.588-10.24,10.24V51.2c0,5.652,4.588,10.24,10.24,10.24c5.652,0,10.24-4.588,10.24-10.24V10.24
			C266.24,4.588,261.652,0,256,0z"/>
	</g>
</g>
<g>
	<g>
		<path d="M256,286.72c-5.652,0-10.24,4.588-10.24,10.24v40.96c0,5.652,4.588,10.24,10.24,10.24c5.652,0,10.24-4.588,10.24-10.24
			v-40.96C266.24,291.307,261.652,286.72,256,286.72z"/>
	</g>
</g>
<g>
	<g>
		<path d="M256,102.4c-5.652,0-10.24,4.587-10.24,10.24V256c0,5.652,4.588,10.24,10.24,10.24c5.652,0,10.24-4.588,10.24-10.24
			V112.64C266.24,106.987,261.652,102.4,256,102.4z"/>
	</g>
</g>
<g>
	<g>
		<path d="M457.81,95.15l-30.72-30.72c-2.929-2.929-7.352-3.789-11.162-2.212c-3.83,1.577-6.328,5.325-6.328,9.462v30.72
			c0,5.652,4.588,10.24,10.24,10.24h30.72c4.137,0,7.864-2.499,9.462-6.328C461.619,102.482,460.738,98.079,457.81,95.15z"/>
	</g>
</g>
<g>
</g>
<g>
</g>
<g>
</g>
<g>
</g>
<g>
</g>
<g>
</g>
<g>
</g>
<g>
</g>
<g>
</g>
<g>
</g>
<g>
</g>
<g>
</g>
<g>
</g>
<g>
</g>
<g>
</g>
</svg>
