<?xml version="1.0" encoding="iso-8859-1"?>
<!-- Generator: Adobe Illustrator 19.0.0, SVG Export Plug-In . SVG Version: 6.00 Build 0)  -->
<svg version="1.1" id="Capa_1" xmlns="http://www.w3.org/2000/svg" xmlns:xlink="http://www.w3.org/1999/xlink" x="0px" y="0px"
	 viewBox="0 0 512.39 512.39" style="enable-background:new 0 0 512.39 512.39;" xml:space="preserve">
<g>
	<g>
		<g>
			<path fill="#fff" d="M56.399,360.128c26.745-8.524,44.288-34.119,42.589-62.138c1.455-21.556-4.907-42.914-17.92-60.16l-0.815-1.047
				c-1.423-6.981-0.941-14.216,1.396-20.945c1.184-5.274,0.612-10.79-1.629-15.709c-4.771-10.356-13.498-29.556-7.331-43.985
				c10.24-24.785,14.545-26.647,25.949-31.651l3.258-1.745c8.205-3.966,17.185-6.072,26.298-6.167
				c4.979-0.124,9.919,0.912,14.429,3.025c1.002-3.965,2.285-7.854,3.84-11.636c1.396-3.491,2.909-6.633,4.422-9.775
				c-7.15-3.164-14.873-4.828-22.691-4.887c-13.65,0.017-27.083,3.415-39.098,9.891c-19.084,8.145-26.647,15.593-38.4,44.102
				c-10.24,23.971,1.978,49.92,7.913,63.069c-7.331,29.905,2.793,40.145,2.793,40.145c10.665,13.414,15.787,30.403,14.313,47.476
				c1.822,17.735-9.066,34.309-26.065,39.68c-31.127,8.356-51.899,37.682-49.455,69.818c0,6.427,5.21,11.636,11.636,11.636H63.73
				c2.594-8.21,6.272-16.037,10.938-23.273H24.282C26.61,378.466,39.358,364.286,56.399,360.128z"/>
			<path fill="#fff" d="M462.74,337.67h0.116c-17.046-5.38-27.946-22.02-26.065-39.796c-1.474-17.073,3.648-34.063,14.313-47.476
				c0,0,10.124-10.24,2.793-40.145c5.935-13.033,18.153-39.098,7.913-63.069c-11.636-28.509-19.549-36.073-38.167-44.102
				c-12.13-6.492-25.689-9.852-39.447-9.775c-8.008-0.072-15.939,1.554-23.273,4.771c2.909,7.275,5.319,14.74,7.215,22.342h0.931
				c4.645-2.518,9.844-3.838,15.127-3.84c9.231,0.043,18.336,2.15,26.647,6.167l3.258,1.745
				c11.636,5.004,15.709,6.865,25.949,31.651c6.167,14.429-2.56,33.745-7.331,43.985c-2.359,4.879-3.054,10.397-1.978,15.709
				c2.218,6.679,2.619,13.827,1.164,20.713l-0.815,1.047c-13.013,17.246-19.375,38.604-17.92,60.16
				c-1.698,28.019,15.844,53.614,42.589,62.138c17.203,4.106,30.078,18.417,32.349,35.956h-50.385
				c4.663,7.237,8.342,15.064,10.938,23.273h51.898c6.427,0,11.636-5.21,11.636-11.636
				C514.64,375.352,493.867,346.026,462.74,337.67z"/>
			<path fill="#fff" d="M349.286,363.502c-24.441-6.296-41.557-28.289-41.658-53.527c-0.958-22.695,7.458-44.786,23.273-61.091
				c0,0,13.615-11.636,4.538-50.385c15.127-21.062,20.131-55.389,1.513-97.745c-10.356-24.785-19.549-38.284-33.396-46.545
				c-10.193-5.281-21.575-7.846-33.047-7.447c-17.22-0.032-34.162,4.334-49.222,12.684c-23.273,10.589-38.633,20.015-53.295,57.135
				c-12.684,30.836,2.444,64.233,9.891,81.455c-9.076,38.4,3.491,51.665,3.491,51.665c15.815,16.305,24.23,38.396,23.273,61.091
				c-0.453,24.901-17.437,46.451-41.542,52.713c-26.182,9.076-81.455,27.695-81.455,90.531c0,6.427,5.21,11.636,11.636,11.636
				h325.818c6.427,0,11.636-5.21,11.636-11.636C430.74,391.197,375.468,372.579,349.286,363.502z M105.853,442.397
				c5.469-32.815,34.095-45.847,63.418-56.436h0.931c34.355-9.096,58.255-40.214,58.182-75.753
				c1.088-26.093-8.008-51.587-25.367-71.098l-3.375-4.305c-3.058-10.453-2.773-21.6,0.815-31.884
				c1.617-5.124,1.026-10.689-1.629-15.36c-6.4-14.313-18.153-40.844-9.309-62.371c11.636-29.673,22.458-35.607,41.542-44.218
				l3.258-1.745c11.157-5.907,23.565-9.059,36.189-9.193c7.516-0.268,14.973,1.415,21.644,4.887
				c6.865,3.956,13.498,11.636,23.273,34.909c18.735,42.589,6.865,66.444,0.931,74.705c-3.932,5.484-5.291,12.404-3.724,18.967
				c3.415,9.463,3.781,19.758,1.047,29.44l-4.422,5.469c-17.359,19.511-26.455,45.005-25.367,71.098
				c-0.073,35.538,23.827,66.657,58.182,75.753h0.931c29.324,10.473,58.182,23.273,63.418,56.436L105.853,442.397z"/>
		</g>
	</g>
</g>
<g>
</g>
<g>
</g>
<g>
</g>
<g>
</g>
<g>
</g>
<g>
</g>
<g>
</g>
<g>
</g>
<g>
</g>
<g>
</g>
<g>
</g>
<g>
</g>
<g>
</g>
<g>
</g>
<g>
</g>
</svg>
